<?xml version="1.0" encoding="iso-8859-1"?>
<!-- Uploaded to: SVG Repo, www.svgrepo.com, Generator: SVG Repo Mixer Tools -->
<svg fill="#000000" height="800px" width="800px" version="1.1" id="Capa_1" xmlns="http://www.w3.org/2000/svg" xmlns:xlink="http://www.w3.org/1999/xlink" 
	 viewBox="0 0 511 511" xml:space="preserve">
<g>
	<path d="M79.5,239h48c12.958,0,23.5-10.542,23.5-23.5v-32c0-12.958-10.542-23.5-23.5-23.5h-48C66.542,160,56,170.542,56,183.5v32
		C56,228.458,66.542,239,79.5,239z M136,183.5v8.5h-8.5c-4.142,0-7.5,3.358-7.5,7.5s3.358,7.5,7.5,7.5h8.5v8.5
		c0,4.687-3.813,8.5-8.5,8.5H111v-49h16.5C132.187,175,136,178.813,136,183.5z M79.5,175H96v49H79.5c-4.687,0-8.5-3.813-8.5-8.5V207
		h8.5c4.142,0,7.5-3.358,7.5-7.5s-3.358-7.5-7.5-7.5H71v-8.5C71,178.813,74.813,175,79.5,175z"/>
	<path d="M63.5,319c4.142,0,7.5-3.358,7.5-7.5v-16c0-4.142-3.358-7.5-7.5-7.5s-7.5,3.358-7.5,7.5v16C56,315.642,59.358,319,63.5,319
		z"/>
	<path d="M87.5,288c-4.142,0-7.5,3.358-7.5,7.5v16c0,4.142,3.358,7.5,7.5,7.5s7.5-3.358,7.5-7.5v-16C95,291.358,91.642,288,87.5,288
		z"/>
	<path d="M111.5,288c-4.142,0-7.5,3.358-7.5,7.5v16c0,4.142,3.358,7.5,7.5,7.5s7.5-3.358,7.5-7.5v-16
		C119,291.358,115.642,288,111.5,288z"/>
	<path d="M135.5,288c-4.142,0-7.5,3.358-7.5,7.5v16c0,4.142,3.358,7.5,7.5,7.5s7.5-3.358,7.5-7.5v-16
		C143,291.358,139.642,288,135.5,288z"/>
	<path d="M167.5,319c4.142,0,7.5-3.358,7.5-7.5v-16c0-4.142-3.358-7.5-7.5-7.5s-7.5,3.358-7.5,7.5v16
		C160,315.642,163.358,319,167.5,319z"/>
	<path d="M191.5,319c4.142,0,7.5-3.358,7.5-7.5v-16c0-4.142-3.358-7.5-7.5-7.5s-7.5,3.358-7.5,7.5v16
		C184,315.642,187.358,319,191.5,319z"/>
	<path d="M215.5,319c4.142,0,7.5-3.358,7.5-7.5v-16c0-4.142-3.358-7.5-7.5-7.5s-7.5,3.358-7.5,7.5v16
		C208,315.642,211.358,319,215.5,319z"/>
	<path d="M319.5,288c-4.142,0-7.5,3.358-7.5,7.5v16c0,4.142,3.358,7.5,7.5,7.5s7.5-3.358,7.5-7.5v-16
		C327,291.358,323.642,288,319.5,288z"/>
	<path d="M343.5,288c-4.142,0-7.5,3.358-7.5,7.5v16c0,4.142,3.358,7.5,7.5,7.5s7.5-3.358,7.5-7.5v-16
		C351,291.358,347.642,288,343.5,288z"/>
	<path d="M375.5,288c-4.142,0-7.5,3.358-7.5,7.5v16c0,4.142,3.358,7.5,7.5,7.5s7.5-3.358,7.5-7.5v-16
		C383,291.358,379.642,288,375.5,288z"/>
	<path d="M399.5,288c-4.142,0-7.5,3.358-7.5,7.5v16c0,4.142,3.358,7.5,7.5,7.5s7.5-3.358,7.5-7.5v-16
		C407,291.358,403.642,288,399.5,288z"/>
	<path d="M423.5,288c-4.142,0-7.5,3.358-7.5,7.5v16c0,4.142,3.358,7.5,7.5,7.5s7.5-3.358,7.5-7.5v-16
		C431,291.358,427.642,288,423.5,288z"/>
	<path d="M447.5,288c-4.142,0-7.5,3.358-7.5,7.5v16c0,4.142,3.358,7.5,7.5,7.5s7.5-3.358,7.5-7.5v-16
		C455,291.358,451.642,288,447.5,288z"/>
	<path d="M415.5,160h-48c-21.78,0-39.5,17.72-39.5,39.5s17.72,39.5,39.5,39.5h48c21.78,0,39.5-17.72,39.5-39.5S437.28,160,415.5,160
		z M415.5,224h-48c-13.509,0-24.5-10.991-24.5-24.5s10.991-24.5,24.5-24.5h48c13.509,0,24.5,10.991,24.5,24.5S429.009,224,415.5,224
		z"/>
	<path d="M229.801,352.301l32.841-73.896c1.124-2.527,0.765-5.468-0.934-7.651l-58.896-75.721l44.491-96.391
		c1.072-2.322,0.887-5.031-0.492-7.185c-1.378-2.155-3.76-3.458-6.317-3.458H39.5C17.72,88,0,105.72,0,127.5v256
		C0,405.28,17.72,423,39.5,423h210.18c2.539,0,4.905-1.284,6.289-3.413c1.383-2.129,1.596-4.813,0.565-7.133L229.801,352.301z
		 M39.5,408C25.991,408,15,397.009,15,383.5v-256c0-13.509,10.991-24.5,24.5-24.5h189.271l-41.491,89.892
		c-1.175,2.546-0.832,5.534,0.89,7.748l58.941,75.779l-5.309,11.945c-0.726-0.234-1.499-0.364-2.302-0.364
		c-4.142,0-7.5,3.358-7.5,7.5v14.92l-17.26,38.835c-0.389,0.876-0.593,1.808-0.631,2.745H63.5c-4.142,0-7.5,3.358-7.5,7.5
		s3.358,7.5,7.5,7.5h156.419l18.221,41H39.5z"/>
	<path d="M471.5,88H275.736c-2.925,0-5.584,1.701-6.81,4.357l-44.428,96.262c-1.175,2.546-0.832,5.534,0.889,7.747l58.747,75.536
		l-34.379,77.353c-0.862,1.939-0.862,4.153,0,6.092l28.09,63.199c1.204,2.708,3.89,4.454,6.854,4.454H471.5
		c21.78,0,39.5-17.72,39.5-39.5v-256C511,105.72,493.28,88,471.5,88z M496,383.5c0,13.509-10.991,24.5-24.5,24.5H289.573l-18.223-41
		h72.15c4.142,0,7.5-3.358,7.5-7.5s-3.358-7.5-7.5-7.5h-78.549L288,300.138V311.5c0,4.142,3.358,7.5,7.5,7.5s7.5-3.358,7.5-7.5v-16
		c0-4.142-3.358-7.5-7.5-7.5c-0.788,0-1.547,0.123-2.26,0.348l6.426-14.458c1.123-2.527,0.765-5.467-0.933-7.65l-58.702-75.479
		L280.535,103H471.5c13.509,0,24.5,10.991,24.5,24.5V383.5z"/>
</g>
</svg>