<?xml version="1.0" encoding="utf-8"?>
<svg version="1.0" width="50px" height="50px" viewBox="0 0 50 50" preserveAspectRatio="xMidYMid meet" xmlns="http://www.w3.org/2000/svg">
  <g transform="matrix(0.014372, 0, 0, -0.014543, -11.828156, 62.345844)" fill="#000000" stroke="none">
    <path d="M4005 4261 c-16 -4 -40 -13 -51 -19 -12 -6 -329 -275 -705 -597 -375 -322 -685 -585 -689 -585 -3 0 -314 264 -691 586 -376 323 -700 594 -719 602 -54 22 -149 12 -196 -21 -63 -43 -88 -89 -92 -166 -3 -58 1 -72 25 -113 21 -35 214 -205 788 -698 418 -358 774 -659 790 -668 40 -22 149 -22 190 0 35 19 1529 1296 1563 1336 37 45 56 124 42 182 -27 110 -148 187 -255 161z" style="paint-order: stroke; fill: rgb(255, 255, 255);"/>
    <path d="M1008 2546 c-94 -34 -140 -95 -146 -190 -6 -113 -39 -80 803 -804 418 -359 778 -662 800 -674 47 -25 125 -29 175 -8 40 16 1556 1312 1587 1356 75 105 36 252 -83 310 -61 30 -125 30 -182 2 -17 -9 -338 -279 -712 -600 -375 -320 -685 -583 -689 -583 -4 0 -313 261 -685 580 -373 319 -693 588 -712 598 -47 24 -112 30 -156 13z" style="paint-order: stroke; fill: rgb(255, 255, 255);"/>
  </g>
</svg>